<svg xmlns="http://www.w3.org/2000/svg" xmlns:xlink="http://www.w3.org/1999/xlink" width="17" height="12" viewBox="0 0 17 12"><defs><path id="gnxia" d="M1052.8 40.98h.02l.04-.06v-.02l.04-.05v-.01l.03-.07.03-.07v-.01l.02-.07v-.03l.02-.05v-.09-.08l-.01-.06v-.02l-.02-.07v-.01l-.03-.07-.04-.07v-.01a.36.36 0 0 0-.03-.06l-.01-.01-.04-.06h-.01l-.06-.07-4.8-4.8a.83.83 0 0 0-1.18 1.18l3.38 3.38h-13.43a.83.83 0 1 0 0 1.67h13.43l-3.35 3.35a.84.84 0 0 0 .59 1.42c.21 0 .42-.08.58-.24l4.77-4.77.07-.07z"/></defs><g><g transform="translate(-1036 -34)"><use fill="#676767" xlink:href="#gnxia"/></g></g></svg>