<svg xmlns="http://www.w3.org/2000/svg" xmlns:xlink="http://www.w3.org/1999/xlink" width="8" height="10" viewBox="0 0 8 10"><defs><path id="6w4ea" d="M1047.3 470c-.72 0-1.3.21-1.3.91v8c0 .7.58.9 1.3.9.72 0 1.3-.2 1.3-.9v-8c0-.7-.58-.91-1.3-.91z"/><path id="6w4eb" d="M1042.3 470c-.72 0-1.3.21-1.3.91v8c0 .7.58.9 1.3.9.72 0 1.3-.2 1.3-.9v-8c0-.7-.58-.91-1.3-.91z"/></defs><g><g transform="translate(-1041 -470)"><use fill="#e4e8ee" xlink:href="#6w4ea"/></g><g transform="translate(-1041 -470)"><use fill="#e4e8ee" xlink:href="#6w4eb"/></g></g></svg>